<?xml version="1.0" encoding="UTF-8" standalone="no"?>
<!DOCTYPE svg PUBLIC "-//W3C//DTD SVG 1.1//EN" "http://www.w3.org/Graphics/SVG/1.1/DTD/svg11.dtd">
<svg width="100%" height="100%" viewBox="0 0 1024 1024" version="1.1" xmlns="http://www.w3.org/2000/svg" xmlns:xlink="http://www.w3.org/1999/xlink" xml:space="preserve" xmlns:serif="http://www.serif.com/" style="fill-rule:evenodd;clip-rule:evenodd;stroke-linejoin:round;stroke-miterlimit:2;">
    <g id="Page-1" serif:id="Page 1" transform="matrix(4.166667,0,0,4.166667,0,0)">
        <rect x="0" y="0" width="245.76" height="245.76" style="fill:none;"/>
        <g id="задняя-часть-папки" serif:id="задняя часть папки">
            <g transform="matrix(1,0,0,1,165.3721,151.4242)">
                <path d="M0,-43.507L31.641,-43.507C38.657,-43.507 44.397,-37.767 44.397,-30.751L44.397,0L0,0L0,-43.507Z" style="fill:rgb(171,114,59);"/>
            </g>
            <g transform="matrix(1,0,0,1,99.8315,118.9582)">
                <path d="M0,-11.041L0,0L-58.32,0C-61.357,0 -63.841,-2.484 -63.841,-5.52C-63.841,-8.557 -61.357,-11.041 -58.32,-11.041L0,-11.041Z" style="fill:rgb(171,114,59);"/>
            </g>
        </g>
    </g>
</svg>
